<?xml version="1.0" standalone="no"?>
<!DOCTYPE svg PUBLIC "-//W3C//DTD SVG 20010904//EN"
 "http://www.w3.org/TR/2001/REC-SVG-20010904/DTD/svg10.dtd">
<svg version="1.0" xmlns="http://www.w3.org/2000/svg"
 width="2362.000000pt" height="2362.000000pt" viewBox="0 0 2362.000000 2362.000000"
 preserveAspectRatio="xMidYMid meet">

<g transform="translate(0.000000,2362.000000) scale(0.100000,-0.100000)"
fill="#DA291C" stroke="none">
<path d="M3306 18410 l7 -2244 3466 -6703 3466 -6702 1140 1 c627 0 1326 4
1554 7 l414 6 388 747 387 747 -2776 5957 c-2681 5752 -2778 5958 -2807 5965
-16 4 -104 23 -195 43 -1480 321 -2818 1192 -3896 2536 -428 533 -839 1193
-1102 1770 l-53 115 7 -2245z"/>
<path d="M20291 20592 c-137 -324 -435 -853 -707 -1255 -1120 -1651 -2630
-2738 -4314 -3103 -91 -20 -178 -39 -195 -43 -32 -8 78 223 -1844 -3862 l-553
-1177 1179 -2560 c648 -1409 1180 -2561 1183 -2561 3 0 1189 2280 2636 5067
l2631 5068 8 2242 c4 1233 6 2242 4 2242 -2 0 -15 -26 -28 -58z"/>
</g>
</svg>
